<?xml version="1.0" standalone="no"?>
<!DOCTYPE svg PUBLIC "-//W3C//DTD SVG 20010904//EN"
 "http://www.w3.org/TR/2001/REC-SVG-20010904/DTD/svg10.dtd">
<svg version="1.0" xmlns="http://www.w3.org/2000/svg"
 width="700.000000pt" height="700.000000pt" viewBox="0 0 700.000000 700.000000"
 preserveAspectRatio="xMidYMid meet">
<metadata>
Created by potrace 1.14, written by Peter Selinger 2001-2017
</metadata>
<g transform="translate(0.000000,700.000000) scale(0.100000,-0.100000)"
fill="#000000" stroke="none">
<path d="M2589 6933 c0 -10 -2 -45 -4 -78 -11 -195 -49 -360 -139 -590 -24
-61 -131 -255 -163 -295 -6 -8 -33 -44 -60 -80 -55 -74 -202 -226 -283 -292
-194 -159 -435 -282 -685 -348 -134 -35 -206 -47 -360 -56 -55 -4 -102 -8
-104 -11 -3 -2 -5 -404 -5 -893 l-1 -890 145 5 c80 3 163 7 185 10 165 17 153
16 300 40 257 42 633 155 850 254 443 204 766 424 1089 740 528 518 880 1181
1005 1894 33 192 40 253 48 455 l6 152 -912 0 c-861 0 -911 -1 -912 -17z"/>
<path d="M5130 6938 c-56 -25 -102 -63 -132 -112 -29 -46 -32 -59 -32 -131 -1
-90 17 -137 75 -193 96 -94 275 -89 366 12 49 53 68 103 68 176 -1 108 -61
202 -153 241 -49 21 -151 25 -192 7z m201 -72 c81 -54 115 -186 70 -274 -40
-77 -97 -112 -182 -112 -82 0 -148 41 -186 114 -21 40 -21 152 0 191 20 40 75
90 112 104 49 18 141 7 186 -23z"/>
<path d="M5114 6825 c-3 -6 -3 -67 -2 -136 l3 -124 28 -3 c28 -3 29 -3 31 57
1 39 26 62 48 43 8 -6 23 -30 34 -52 10 -22 25 -40 32 -41 6 -1 18 -2 25 -3
27 -5 26 8 -2 57 l-29 52 24 28 c34 40 30 92 -9 117 -27 17 -177 22 -183 5z
m130 -45 c18 -7 26 -17 26 -34 0 -21 -6 -26 -35 -32 -49 -9 -61 -2 -59 37 1
19 2 35 3 37 2 6 42 1 65 -8z"/>
<path d="M2594 3441 c3 -86 8 -169 10 -186 2 -16 7 -57 11 -90 9 -82 45 -282
69 -385 31 -129 96 -331 154 -475 37 -92 143 -317 177 -375 158 -271 258 -417
414 -601 66 -78 336 -347 410 -409 158 -132 370 -281 540 -380 72 -41 325
-170 335 -170 3 0 31 -12 62 -26 200 -91 580 -203 814 -239 19 -3 46 -7 60
-10 112 -20 252 -33 430 -40 l136 -6 -1 893 0 893 -35 1 c-42 1 -188 13 -221
19 -13 2 -41 6 -63 10 -21 3 -83 17 -137 30 -305 78 -592 240 -820 465 -271
267 -432 580 -503 975 -7 37 -18 155 -20 215 l-1 45 -914 1 -914 0 7 -155z"/>
</g>
</svg>
