<svg width="143" height="181" xmlns="http://www.w3.org/2000/svg" viewBox="0 0 142.53 180.99"><path d="M0,93.1C52.51,93.1,95.24,51.34,95.24,0H47.29C47.29,25.49,26.08,46.23,0,46.23Z" style="fill:#fc1c46"/><path d="M47.29,87.89c0,51.33,42.72,93.1,95.24,93.1V134.12c-26.08,0-47.29-20.74-47.29-46.23Z" style="fill:#fc1c46"/><path d="M110.1,4.05a6.67,6.67,0,0,1,1.45-2.16A6.48,6.48,0,0,1,113.7.5a7.11,7.11,0,0,1,2.66-.5A7,7,0,0,1,119,.5a6.43,6.43,0,0,1,2.14,1.39,6.67,6.67,0,0,1,1.45,2.16,6.91,6.91,0,0,1,.53,2.77,6.81,6.81,0,0,1-.53,2.75,6.63,6.63,0,0,1-1.45,2.15A6.26,6.26,0,0,1,119,13.1a7,7,0,0,1-2.64.49,7.11,7.11,0,0,1-2.66-.49,6.3,6.3,0,0,1-2.15-1.38,6.63,6.63,0,0,1-1.45-2.15,7,7,0,0,1-.53-2.75A7.09,7.09,0,0,1,110.1,4.05Zm1.28,5a5.21,5.21,0,0,0,1.14,1.74A5,5,0,0,0,114.23,12a6,6,0,0,0,4.27,0,5,5,0,0,0,1.71-1.14,5.18,5.18,0,0,0,1.13-1.74,6,6,0,0,0,.41-2.25,6.12,6.12,0,0,0-.41-2.27,5.23,5.23,0,0,0-1.13-1.75,4.86,4.86,0,0,0-1.71-1.13,5.9,5.9,0,0,0-4.27,0,4.86,4.86,0,0,0-1.71,1.13,5.25,5.25,0,0,0-1.14,1.75A5.92,5.92,0,0,0,111,6.82,5.85,5.85,0,0,0,111.38,9.07Zm3.82-1.59v2.69h-1.61V3H116A10,10,0,0,1,117.4,3a3,3,0,0,1,1,.34,1.73,1.73,0,0,1,.67.7,2.42,2.42,0,0,1,.24,1.15,2,2,0,0,1-1.3,1.94l1.7,3H118l-1.49-2.69Zm2.16-3a2,2,0,0,0-1.06-.23h-1.1v2h1.16A1.73,1.73,0,0,0,117.43,6a.88.88,0,0,0,.32-.72A.85.85,0,0,0,117.36,4.47Z" style="fill:#fc1c46"/></svg>