<?xml version="1.0" encoding="utf-8"?>
<!-- Generator: Adobe Illustrator 26.0.2, SVG Export Plug-In . SVG Version: 6.00 Build 0)  -->
<svg version="1.1" id="Layer_1" xmlns="http://www.w3.org/2000/svg" xmlns:xlink="http://www.w3.org/1999/xlink" x="0px" y="0px"
	 viewBox="0 0 404.8 80" enable-background="new 0 0 404.8 80" xml:space="preserve">
<path fill="#FFFFFF" d="M86.3,31.5v-6h25.5v6h-9.3v23h-6.9v-23H86.3z"/>
<path fill="#FFFFFF" d="M140.2,54.5h-6.8V42.6h-11.9v11.9h-6.8v-29h6.8v11.1h11.9V25.5h6.8V54.5z"/>
<path fill="#FFFFFF" d="M172.7,46.2c-1.4,3.6-4.2,6.4-7.8,7.8c-3.9,1.4-8.3,1.4-12.2,0c-3.6-1.4-6.4-4.2-7.8-7.8
	c-1.5-4-1.5-8.3,0-12.3c0.7-1.8,1.7-3.4,3.1-4.7c1.4-1.3,3-2.3,4.7-3c3.9-1.4,8.3-1.4,12.2,0c3.6,1.3,6.5,4.2,7.8,7.8
	C174.2,37.9,174.2,42.2,172.7,46.2L172.7,46.2z M151.6,44.1c0.4,1.1,0.9,2.1,1.7,2.9c0.7,0.8,1.5,1.4,2.5,1.8c1.9,0.8,4.1,0.8,6,0
	c0.9-0.4,1.8-1,2.5-1.8c0.7-0.9,1.3-1.8,1.7-2.9c0.8-2.6,0.8-5.5,0-8.1c-0.4-1.1-0.9-2.1-1.7-2.9c-0.7-0.8-1.5-1.4-2.5-1.8
	c-1.9-0.8-4.1-0.8-6,0c-0.9,0.4-1.8,1-2.5,1.8c-0.7,0.9-1.3,1.8-1.7,2.9C150.8,38.6,150.8,41.4,151.6,44.1z"/>
<path fill="#FFFFFF" d="M183.7,42.8c0,0.9,0.1,1.9,0.2,2.8c0.1,0.7,0.4,1.4,0.9,2.1c0.4,0.6,1,1,1.7,1.3c0.9,0.3,1.9,0.5,2.9,0.4
	c1,0,2-0.1,2.9-0.5c0.7-0.3,1.3-0.8,1.7-1.4c0.4-0.7,0.7-1.4,0.8-2.2c0.1-1,0.2-1.9,0.2-2.9V25.5h6.8v16.4c0,2-0.2,3.9-0.7,5.8
	c-0.4,1.5-1.2,2.9-2.2,4.1c-1.1,1.1-2.4,2-3.9,2.4c-1.9,0.6-3.8,0.8-5.8,0.8c-1.9,0-3.8-0.2-5.6-0.7c-1.5-0.4-2.8-1.2-3.9-2.2
	c-1.1-1.1-1.9-2.5-2.3-4c-0.5-2-0.8-4-0.7-6.1V25.5h6.8L183.7,42.8z"/>
<path fill="#FFFFFF" d="M224.1,25.6c1.4,0.4,2.7,1,3.9,1.8c1.1,0.8,2.1,1.8,2.9,3c0.8,1.3,1.4,2.7,1.7,4.2h-6.7
	c-0.3-1.1-1.1-2-2-2.7c-0.6-0.4-1.2-0.7-1.9-0.9c-0.8-0.2-1.6-0.3-2.5-0.3c-1,0-2,0.2-2.9,0.6c-0.9,0.4-1.7,1-2.4,1.7
	c-0.7,0.9-1.2,1.8-1.6,2.9c-0.4,1.3-0.6,2.6-0.6,4c0,3.1,0.7,5.4,2.1,7c1.4,1.6,3.4,2.5,5.5,2.4c0.8,0,1.6-0.1,2.3-0.2
	c0.7-0.1,1.4-0.4,2.1-0.8c0.6-0.4,1.1-0.9,1.5-1.5c0.4-0.7,0.6-1.5,0.6-2.3v-0.6h-7v-5.6h13.8v16.2h-5.2l-0.2-3.2
	c-0.9,1.3-2.1,2.2-3.6,2.8c-1.7,0.6-3.5,0.9-5.3,0.9c-2,0-3.9-0.3-5.8-1.1c-1.7-0.7-3.1-1.7-4.3-3c-1.2-1.4-2.2-3-2.7-4.8
	c-0.7-2-1-4.1-1-6.3c0-2.1,0.3-4.2,1.1-6.2c1.3-3.5,4.1-6.3,7.7-7.6C216.9,24.8,220.6,24.7,224.1,25.6L224.1,25.6z"/>
<path fill="#FFFFFF" d="M263.4,54.5h-6.8V42.6h-11.9v11.9h-6.8v-29h6.8v11.1h11.9V25.5h6.8V54.5z"/>
<path fill="#FFFFFF" d="M266.3,31.5v-6h25.5v6h-9.3v23h-6.9v-23H266.3z"/>
<path fill="#FFFFFF" d="M315.4,48.5v6h-20.8v-29h6.8v23H315.4z"/>
<path fill="#FFFFFF" d="M334,25.5l11,29h-7.4l-1.8-5.2h-11.2l-1.7,5.2h-7.3l10.9-29H334z M333.9,43.8l-3.7-11l-3.8,11H333.9z"/>
<path fill="#FFFFFF" d="M360,25.5c1.5,0,3,0.1,4.4,0.3c1.2,0.2,2.4,0.6,3.5,1.2c1,0.5,1.8,1.3,2.3,2.3c0.6,1.2,0.9,2.4,0.8,3.7
	c0,1.2-0.3,2.4-0.9,3.5c-0.6,1-1.5,1.9-2.6,2.5c1.3,0.4,2.5,1.2,3.3,2.3c0.9,1.2,1.4,2.7,1.3,4.2c0,1.4-0.2,2.8-0.8,4.1
	c-0.5,1.1-1.4,2.1-2.4,2.8c-1.1,0.7-2.4,1.3-3.7,1.5c-1.6,0.3-3.2,0.5-4.8,0.5h-13.2v-29L360,25.5z M360.2,37.1c1,0.1,2-0.2,2.8-0.8
	c0.7-0.5,1-1.3,1-2.2c0-0.8-0.3-1.6-1-2.1c-0.8-0.6-1.8-0.8-2.8-0.8h-6v5.8H360.2z M360.6,48.7c1.2,0.1,2.3-0.2,3.3-0.9
	c1.3-1.1,1.5-3.1,0.3-4.5c-0.1-0.1-0.2-0.2-0.3-0.3c-1-0.7-2.1-1-3.3-0.9h-6.4v6.6L360.6,48.7z"/>
<path fill="#FFFFFF" d="M376,33.9c0.7-1.8,1.8-3.4,3.2-4.8c1.4-1.3,3-2.4,4.8-3.1c3.8-1.5,7.9-1.5,11.7,0c1.8,0.7,3.4,1.8,4.7,3.1
	c1.4,1.4,2.5,3,3.2,4.8c1.6,3.9,1.6,8.3,0,12.2c-0.7,1.8-1.8,3.4-3.2,4.7c-1.4,1.3-3,2.4-4.7,3.1c-3.8,1.4-7.9,1.4-11.7,0
	c-1.8-0.7-3.4-1.7-4.8-3.1c-1.4-1.4-2.5-3-3.2-4.7C374.4,42.2,374.4,37.9,376,33.9z M379,44.9c1.1,2.8,3.4,5.1,6.2,6.2
	c3,1.2,6.3,1.2,9.2,0c2.8-1.1,5-3.4,6.1-6.2c0.6-1.5,0.9-3.2,0.9-4.8c0-1.7-0.3-3.3-0.9-4.9c-0.5-1.4-1.4-2.7-2.4-3.8
	c-1-1.1-2.3-1.9-3.7-2.5c-3-1.1-6.3-1.1-9.2,0c-1.4,0.6-2.6,1.4-3.7,2.5c-1.1,1.1-1.9,2.4-2.5,3.8c-0.6,1.6-0.9,3.2-0.9,4.9
	C378.1,41.7,378.4,43.4,379,44.9L379,44.9z M382.9,47.5v-16h6.4c1,0,2,0.1,3,0.2c0.8,0.1,1.6,0.4,2.3,0.8c0.7,0.4,1.2,0.9,1.6,1.6
	c0.4,0.8,0.6,1.7,0.6,2.6c0.1,1-0.2,2-0.8,2.8c-0.5,0.7-1.3,1.2-2.1,1.6l3.9,6.4h-4.8l-3.4-5.7h-2.3v5.7L382.9,47.5z M391.9,35.5
	c-0.4-0.4-1-0.7-1.5-0.6h-3.2v3.6h3.2c0.6,0.1,1.1-0.1,1.5-0.5c0.3-0.3,0.5-0.8,0.5-1.2C392.4,36.3,392.2,35.8,391.9,35.5
	L391.9,35.5z"/>
</svg>
